<svg version="1.1" xmlns="http://www.w3.org/2000/svg" viewBox="50 80 150 100"><desc>Created with Snap</desc><defs></defs><g transform="matrix(0.0406,0,0,0.0406,8.1035,121.7092)"><g transform="matrix(16.9746,0,0,16.9746,4101.9213,-767.4284)"><title>cube</title><g><g><path d="M91.4,26.6L91.4,26.6c0-0.1,0-0.2-0.1-0.3l0,0c-0.1-0.1-0.1-0.2-0.2-0.2l0,0L70.8,14.3c0,0-0.1,0-0.1-0.1L50.4,2.6l0,0    c-0.1-0.1-0.2-0.1-0.4-0.1l0,0c-0.1,0-0.2,0-0.3,0.1l0,0l-20,11.5L9,26l0,0c-0.1,0.1-0.2,0.2-0.2,0.3c-0.1,0.1-0.1,0.2-0.1,0.3    l0,0v46.8l0,0c0,0.1,0,0.3,0.1,0.4l0,0C8.8,73.9,8.9,74,9,74l20.1,11.6c0,0.1,0.1,0.1,0.2,0.2h0.1c0.1,0,0.2,0.1,0.3,0.1    l19.9,11.5l0,0c0.2,0.1,0.5,0.1,0.7,0l0,0L70.5,86l0,0c0.3,0,0.5-0.2,0.7-0.4L91,74.2l0,0c0.1-0.1,0.1-0.1,0.2-0.2    c0,0,0.1,0,0.1-0.1c0.1-0.1,0.1-0.2,0.1-0.3l0,0L91.4,26.6z M48.7,26.5L30.6,36.8V16L48.7,26.5z M49.2,48.8L31.1,38.3l18.2-10.4    L49.2,48.8z M50.7,27.6L69,38.2L50.7,48.7L50.7,27.6z M48.4,50L30.5,60.4V39.8L48.4,50z M49.2,51.3v20.1l-17.5-10L49.2,51.3z     M50.7,51.4l17.7,10.2L50.7,72V51.4z M51.4,50l18.3-10.5v21.1L51.4,50z M51.7,26.5l17.9-10.3v20.6L51.7,26.5z M29,59.8L11.3,49.6    l17.7-10.2L29,59.8z M49,73L30.5,83.9V62.4L49,73z M69.7,62.6v20.6L52,73L69.7,62.6z M71.2,39.4l17.7,10.2L71.2,60L71.2,39.4z     M89.9,48.4L72.1,38.2l17.8-10.3V48.4z M71.2,37V16.3l18,10.3L71.2,37z M50.7,25.3V4.5l18.1,10.4L50.7,25.3z M49.2,25L31.4,14.7    L49.2,4.5L49.2,25z M29.1,37.1L10.8,26.6l18.3-10.5L29.1,37.1z M28.1,38.2L10.1,48.6V27.9L28.1,38.2z M10.1,50.6l18.6,10.7    L10.1,72.1V50.6z M29,62.9v20.8L10.8,73.4L29,62.9z M49.2,74.6v20.8L31.3,85.1L49.2,74.6z M50.7,74l18.7,10.8L50.7,95.5V74z     M71.2,63.2l17.9,10.3L71.2,83.8L71.2,63.2z M71.4,61.6l18.5-10.8v21.5L71.4,61.6z" fill="#e4473e" style=""></path></g></g><desc>Created with Snap</desc><defs></defs></g><g><g transform="matrix(1.024,0,0,-1.024,0,0)"><path d="M607 700L707 700L707 0L607 0L607 312L205 312L205 0L105 0L105 700L205 700L205 399L607 399L607 700ZM1017 87L1425 87L1425 0L917 0L917 700L1411 700L1411 613L1017 613L1017 398L1368 398L1368 313L1017 313L1017 87ZM1791 -8Q1712 -8 1638 16Q1565 41 1523 80L1560 158Q1600 122 1662 99Q1725 77 1791 77Q1878 77 1921 106Q1964 136 1964 185Q1964 221 1940 243Q1917 266 1882 278Q1848 290 1785 305Q1706 324 1657 343Q1609 362 1574 401Q1540 441 1540 508Q1540 564 1569 609Q1599 654 1659 681Q1719 708 1808 708Q1870 708 1930 692Q1990 676 2033 646L2000 566Q1956 594 1906 608Q1856 623 1808 623Q1723 623 1680 592Q1638 561 1638 512Q1638 476 1662 453Q1686 431 1721 418Q1757 406 1818 392Q1897 373 1945 354Q1993 335 2027 296Q2062 257 2062 191Q2062 136 2032 90Q2002 45 1941 18Q1880 -8 1791 -8ZM2347 0L2347 613L2107 613L2107 700L2686 700L2686 613L2446 613L2446 0L2347 0ZM2795 0L2795 700L2895 700L2895 0L2795 0ZM3850 0L3754 0L3753 510L3500 85L3454 85L3201 507L3201 0L3105 0L3105 700L3187 700L3479 208L3767 700L3849 700L3850 0Z" fill="#1a283f" style=""></path></g></g><g transform="matrix(0.75,0,0,0.75,310.9123,881.024)"><g transform="matrix(0.512,0,0,-0.512,0,0)"><path d="M780 1433L1353 0L1203 0Q1177 0 1161 13Q1145 26 1137 46L1003 392L360 392L226 46Q219 28 202 14Q185 0 160 0L10 0L583 1433L780 1433ZM639 1114L414 532L949 532L724 1115Q702 1169 681 1250Q670 1209 659 1174Q649 1140 639 1114ZM1526 1473L1704 1473L1704 0L1526 0L1526 1473ZM2419 1029Q2510 1029 2587 998Q2664 968 2720 910Q2776 853 2807 768Q2839 684 2839 576Q2839 534 2830 520Q2821 506 2796 506L2122 506Q2124 410 2148 339Q2172 268 2214 220Q2256 173 2314 149Q2372 126 2444 126Q2511 126 2559 141Q2608 157 2643 175Q2678 193 2701 208Q2725 224 2742 224Q2764 224 2776 207L2826 142Q2793 102 2747 72Q2701 43 2648 24Q2596 5 2540 -5Q2484 -14 2429 -14Q2324 -14 2235 21Q2147 57 2082 125Q2018 194 1982 295Q1946 396 1946 527Q1946 633 1978 725Q2011 817 2072 884Q2133 952 2221 990Q2309 1029 2419 1029ZM2423 898Q2294 898 2220 823Q2146 749 2128 617L2679 617Q2679 679 2662 730Q2645 782 2612 819Q2579 857 2531 877Q2484 898 2423 898ZM2948 0L3303 519L2962 1013L3133 1013Q3155 1013 3165 1006Q3175 999 3183 986L3431 606Q3440 634 3457 662L3675 982Q3685 996 3695 1004Q3705 1013 3720 1013L3884 1013L3543 529L3898 0L3727 0Q3705 0 3692 11Q3680 23 3672 37L3417 434Q3410 405 3396 382L3160 37Q3150 23 3138 11Q3127 0 3107 0L2948 0ZM4818 648L4818 0L4739 0Q4713 0 4697 8Q4681 16 4676 42L4656 136Q4616 100 4578 71Q4540 43 4498 23Q4456 4 4408 -6Q4361 -16 4303 -16Q4244 -16 4192 0Q4141 17 4103 50Q4065 83 4042 133Q4020 184 4020 253Q4020 313 4053 368Q4086 424 4159 467Q4233 510 4352 537Q4471 565 4643 569L4643 648Q4643 766 4592 826Q4542 887 4443 887Q4378 887 4333 870Q4289 854 4256 833Q4224 813 4200 796Q4177 780 4154 780Q4136 780 4122 789Q4109 799 4101 813L4069 870Q4153 951 4250 991Q4347 1031 4465 1031Q4550 1031 4616 1003Q4682 975 4727 925Q4772 875 4795 804Q4818 733 4818 648ZM4356 109Q4403 109 4442 118Q4481 128 4515 145Q4550 163 4581 188Q4613 213 4643 245L4643 456Q4520 452 4434 436Q4348 421 4294 396Q4240 371 4215 337Q4191 303 4191 261Q4191 221 4204 192Q4217 163 4239 144Q4261 126 4291 117Q4321 109 4356 109ZM5266 0L5088 0L5088 1013L5194 1013Q5232 1013 5242 976L5256 866Q5322 939 5403 984Q5485 1029 5592 1029Q5675 1029 5738 1001Q5802 974 5844 923Q5887 873 5909 802Q5931 731 5931 645L5931 0L5753 0L5753 645Q5753 760 5700 823Q5648 887 5540 887Q5461 887 5392 849Q5324 811 5266 746L5266 0ZM7019 0L6913 0Q6875 0 6865 37L6849 160Q6784 81 6700 33Q6617 -14 6509 -14Q6422 -14 6351 19Q6280 53 6230 118Q6180 183 6153 280Q6126 377 6126 503Q6126 615 6156 711Q6186 808 6242 879Q6299 950 6380 990Q6461 1031 6564 1031Q6657 1031 6723 999Q6789 968 6841 911L6841 1473L7019 1473L7019 0ZM6568 130Q6655 130 6720 170Q6786 210 6841 283L6841 773Q6792 839 6733 865Q6675 892 6604 892Q6462 892 6386 791Q6310 690 6310 503Q6310 404 6327 333Q6344 263 6377 217Q6410 172 6458 151Q6506 130 6568 130ZM7496 0L7318 0L7318 1013L7420 1013Q7449 1013 7460 1002Q7471 991 7475 964L7487 806Q7539 912 7615 971Q7692 1031 7795 1031Q7837 1031 7871 1021Q7905 1012 7934 995L7911 862Q7904 837 7880 837Q7866 837 7837 846Q7808 856 7756 856Q7663 856 7600 802Q7538 748 7496 645L7496 0ZM8144 1013L8322 1013L8322 0L8144 0L8144 1013ZM8362 1331Q8362 1305 8351 1282Q8341 1260 8323 1242Q8306 1225 8283 1215Q8260 1205 8234 1205Q8208 1205 8185 1215Q8163 1225 8145 1242Q8128 1260 8118 1282Q8108 1305 8108 1331Q8108 1357 8118 1380Q8128 1404 8145 1421Q8163 1439 8185 1449Q8208 1459 8234 1459Q8260 1459 8283 1449Q8306 1439 8323 1421Q8341 1404 8351 1380Q8362 1357 8362 1331ZM9037 1029Q9128 1029 9205 998Q9282 968 9338 910Q9394 853 9425 768Q9457 684 9457 576Q9457 534 9448 520Q9439 506 9414 506L8740 506Q8742 410 8766 339Q8790 268 8832 220Q8874 173 8932 149Q8990 126 9062 126Q9129 126 9177 141Q9226 157 9261 175Q9296 193 9319 208Q9343 224 9360 224Q9382 224 9394 207L9444 142Q9411 102 9365 72Q9319 43 9266 24Q9214 5 9158 -5Q9102 -14 9047 -14Q8942 -14 8853 21Q8765 57 8700 125Q8636 194 8600 295Q8564 396 8564 527Q8564 633 8596 725Q8629 817 8690 884Q8751 952 8839 990Q8927 1029 9037 1029ZM9041 898Q8912 898 8838 823Q8764 749 8746 617L9297 617Q9297 679 9280 730Q9263 782 9230 819Q9197 857 9149 877Q9102 898 9041 898Z" fill="#1a283f" style=""></path></g></g></g></svg>