<svg version="1.1" xmlns="http://www.w3.org/2000/svg" viewBox="50 80 150 100"><desc>Created with Snap</desc><defs></defs><g transform="matrix(0.0399,0,0,0.0399,23.8851,118.8678)"><g transform="matrix(16.4747,0,0,16.4747,3791.418,-670.1326)"><g transform="translate(0,-952.36218)"><path style="" d="m 45.719885,957.36164 3.18651,38.66594 c -0.0104,0.002 -0.0207,0.005 -0.0312,0.007 -0.004,7.7e-4 -0.008,0.002 -0.0117,0.003 -0.0463,0.009 -0.093,0.0154 -0.13911,0.0247 -0.004,7.6e-4 -0.008,0.002 -0.0116,0.003 -0.0493,0.01 -0.0979,0.0214 -0.14692,0.0325 -0.006,9.5e-4 -0.0104,0.003 -0.0156,0.004 -0.2469,0.0566 -0.49069,0.12668 -0.72935,0.21192 -0.0121,0.005 -0.0243,0.009 -0.0364,0.013 -0.0131,0.005 -0.026,0.009 -0.039,0.0143 l -16.53063,-35.06206 -7.4261,4.25388 22.0885,31.88727 c -0.0888,0.0738 -0.17625,0.14988 -0.26131,0.22881 -0.007,0.007 -0.0138,0.013 -0.0208,0.0195 -0.0278,0.026 -0.0546,0.0528 -0.082,0.0793 -0.0108,0.0104 -0.0218,0.0207 -0.0325,0.0312 -0.027,0.0265 -0.054,0.0535 -0.0806,0.0806 -0.12959,0.13168 -0.25391,0.2685 -0.37052,0.40953 l -31.84697,-22.10018 -4.30459,7.3975 35.07899,16.57354 c -0.003,0.01 -0.006,0.016 -0.009,0.025 -0.0102,0.028 -0.0201,0.055 -0.0299,0.083 -0.004,0.012 -0.008,0.023 -0.0116,0.035 -0.01,0.029 -0.0205,0.057 -0.0299,0.086 -0.008,0.023 -0.0149,0.046 -0.0221,0.069 -0.0107,0.034 -0.0211,0.068 -0.0312,0.1014 -0.005,0.015 -0.009,0.029 -0.013,0.044 -0.009,0.032 -0.0187,0.063 -0.0273,0.095 -0.005,0.019 -0.009,0.037 -0.0143,0.056 -0.007,0.023 -0.0123,0.047 -0.0182,0.07 -0.004,0.015 -0.007,0.029 -0.0104,0.044 -0.0341,0.1397 -0.0639,0.2792 -0.0884,0.4199 l -38.65164,-3.1839 0.0299,8.5572 38.61653,-3.2138 c 0.0675,0.4021 0.1727,0.7969 0.31462,1.1792 l -35.06208,16.5293 4.25389,7.4274 31.88726,-22.0898 c 0.25307,0.3044 0.53719,0.5885 0.85027,0.8463 l -22.10152,31.8496 7.3975,4.3046 16.57354,-35.0803 c 0.37654,0.1391 0.76017,0.2403 1.14668,0.3055 l -3.18652,38.6634 8.55848,-0.03 -3.21511,-38.6374 c 0.0264,-0 0.053,-0.01 0.0793,-0.014 0.0321,-0.01 0.0642,-0.012 0.0962,-0.018 0.0335,-0.01 0.0668,-0.014 0.10011,-0.021 0.29999,-0.063 0.59199,-0.1459 0.87496,-0.2496 l 16.57481,35.0816 7.39621,-4.3046 -22.1015,-31.8496 c 0.30851,-0.2541 0.59265,-0.5371 0.84895,-0.8437 l 31.88727,22.0898 4.25388,-7.4274 -35.05427,-16.5268 c 0.14193,-0.3794 0.24892,-0.7761 0.31722,-1.1856 l 38.63343,3.2151 0.0299,-8.55722 -38.66854,3.18522 c -0.0674,-0.3924 -0.17038,-0.773 -0.30551,-1.1376 l 35.06857,-16.56831 -4.30458,-7.3975 -31.84437,22.0989 c -0.0287,-0.0346 -0.0565,-0.0688 -0.0858,-0.1027 -0.10171,-0.11774 -0.20865,-0.23059 -0.31853,-0.34063 -9.4e-4,-9.5e-4 -0.002,-0.003 -0.003,-0.004 -0.0341,-0.0341 -0.0691,-0.068 -0.104,-0.10142 -0.002,-0.002 -0.005,-0.005 -0.007,-0.007 -0.035,-0.0333 -0.071,-0.0663 -0.10661,-0.0988 -0.002,-0.002 -0.004,-0.005 -0.007,-0.007 -0.0357,-0.0325 -0.0714,-0.0633 -0.10791,-0.0949 -0.002,-0.002 -0.004,-0.005 -0.007,-0.007 -0.0335,-0.0291 -0.0686,-0.0575 -0.1027,-0.0858 l 22.08718,-31.88469 -7.42611,-4.25387 -16.52802,35.05687 c -0.37416,-0.13875 -0.76416,-0.24216 -1.16748,-0.30943 l 3.2151,-38.63342 -8.55848,-0.0299 z" fill="#f4b41a" fill-opacity="1" fill-rule="nonzero" stroke="none"></path></g><desc>Created with Snap</desc><defs></defs></g><g><g transform="matrix(1.024,0,0,-1.024,0,0)"><path d="M277 0L39 0L39 53L117 53L117 510L39 510L39 563L277 563L277 510L199 510L199 318L499 318L499 510L420 510L420 563L658 563L658 510L580 510L580 53L658 53L658 0L420 0L420 53L499 53L499 261L199 261L199 53L277 53L277 0ZM1231 0L736 0L736 53L814 53L814 510L736 510L736 563L1226 563L1226 396L1163 396L1163 510L896 510L896 319L1071 319L1071 385L1112 385L1112 197L1071 197L1071 264L896 264L896 53L1168 53L1168 170L1231 170L1231 0ZM1579 -10Q1539 -10 1504 2Q1470 15 1444 37Q1418 60 1402 90L1415 90L1415 0L1350 0L1350 190L1410 190Q1414 149 1435 117Q1456 85 1492 66Q1528 48 1576 48Q1628 48 1657 72Q1686 97 1686 143Q1686 180 1673 200Q1660 221 1630 232Q1600 244 1550 252L1526 256Q1445 270 1396 309Q1347 349 1347 420Q1347 470 1369 504Q1391 538 1431 556Q1471 574 1524 574Q1583 574 1628 548Q1673 522 1689 477L1668 477L1668 563L1732 563L1732 404L1673 404Q1669 428 1656 454Q1643 480 1613 498Q1583 516 1528 516Q1476 516 1448 491Q1420 467 1420 428Q1420 385 1451 362Q1482 339 1541 328L1564 324Q1630 313 1673 294Q1716 275 1737 242Q1759 209 1759 155Q1759 111 1738 73Q1717 36 1677 13Q1637 -10 1579 -10ZM2200 0L1963 0L1963 53L2041 53L2041 510L1887 510L1887 367L1826 367L1826 563L2334 563L2334 367L2273 367L2273 510L2122 510L2122 53L2200 53L2200 0ZM2649 0L2410 0L2410 53L2488 53L2488 510L2410 510L2410 563L2649 563L2649 510L2570 510L2570 53L2649 53L2649 0ZM2949 0L2739 0L2739 53L2815 53L2815 510L2739 510L2739 563L2930 563L3114 168L3289 563L3483 563L3483 510L3407 510L3407 53L3483 53L3483 0L3256 0L3256 53L3329 53L3329 496L3117 29L3091 29L2876 496L2876 53L2949 53L2949 0Z" fill="#143d59" style=""></path></g></g><g transform="matrix(0.75,0,0,0.75,-298.7519,885.76)"><g transform="matrix(1.024,0,0,-1.024,0,0)"><path d="M91 -8L10 25L284 700L388 700L658 25L571 -10L493 190L169 190L91 -8ZM331 606L199 270L462 270L331 606ZM833 740L833 172Q833 118 855 92Q878 66 918 66Q937 66 955 70Q973 75 987 81L1009 8Q991 0 964 -6Q938 -12 906 -12Q871 -12 841 -2Q812 8 790 29Q768 50 755 83Q743 116 743 163L743 740L833 740ZM1515 223L1151 223Q1160 150 1202 109Q1244 68 1313 68Q1358 68 1394 77Q1430 87 1463 102L1484 25Q1448 8 1403 -2Q1358 -12 1302 -12Q1246 -12 1201 6Q1156 25 1124 59Q1093 94 1076 144Q1059 195 1059 260Q1059 318 1076 368Q1093 418 1124 454Q1155 491 1198 511Q1241 532 1294 532Q1350 532 1392 513Q1434 494 1462 461Q1490 428 1504 384Q1518 340 1518 291Q1518 256 1515 223ZM1292 454Q1233 454 1195 414Q1158 374 1150 296L1435 296Q1435 372 1397 413Q1359 454 1292 454ZM1568 49L1753 264L1575 470L1645 531L1806 323L1964 527L2031 470L1858 268L2048 49L1980 -9L1805 208L1632 -7L1568 49ZM2103 257Q2103 315 2121 365Q2139 416 2171 453Q2204 490 2249 511Q2295 532 2349 532Q2394 532 2430 516Q2467 501 2494 478L2494 520L2576 520L2576 126Q2576 88 2594 76Q2613 65 2635 65L2616 -5Q2520 -5 2500 73Q2488 57 2472 41Q2457 26 2437 14Q2417 2 2392 -5Q2367 -12 2337 -12Q2288 -12 2245 7Q2203 26 2171 61Q2140 96 2121 145Q2103 195 2103 257ZM2357 68Q2395 68 2429 86Q2463 104 2486 133L2486 412Q2459 431 2426 442Q2394 454 2358 454Q2322 454 2292 440Q2262 426 2240 400Q2219 375 2207 339Q2195 303 2195 260Q2195 218 2207 182Q2219 147 2241 121Q2263 96 2292 82Q2322 68 2357 68ZM2842 520L2842 433Q2870 475 2913 503Q2957 532 3017 532Q3105 532 3148 479Q3192 426 3192 339L3192 0L3102 0L3102 329Q3102 386 3076 419Q3050 453 3002 453Q2979 453 2957 444Q2935 436 2914 421Q2894 406 2876 386Q2859 366 2845 344L2845 0L2755 0L2755 520L2842 520ZM3544 -12Q3496 -12 3453 7Q3411 26 3379 61Q3348 96 3330 145Q3312 195 3312 257Q3312 316 3330 366Q3349 417 3380 453Q3412 490 3454 511Q3496 532 3543 532Q3595 532 3632 511Q3670 490 3691 468L3691 740L3781 740L3781 126Q3781 88 3799 76Q3818 65 3840 65L3821 -5Q3726 -5 3705 71Q3682 39 3643 13Q3604 -12 3544 -12ZM3564 68Q3601 68 3634 85Q3668 103 3691 131L3691 389Q3672 413 3638 433Q3605 454 3563 454Q3527 454 3497 439Q3468 424 3447 398Q3426 372 3415 336Q3404 301 3404 260Q3404 218 3416 183Q3428 148 3449 122Q3471 97 3500 82Q3530 68 3564 68ZM4269 526L4242 433Q4223 441 4197 441Q4169 441 4142 429Q4116 417 4095 393Q4075 369 4062 331Q4050 294 4050 243L4050 0L3960 0L3960 520L4047 520L4047 407Q4056 431 4071 454Q4086 477 4106 494Q4127 511 4154 521Q4181 532 4214 532Q4229 532 4243 530Q4258 529 4269 526ZM4449 520L4449 0L4359 0L4359 520L4449 520ZM4404 609Q4378 609 4359 627Q4341 646 4341 672Q4341 701 4358 718Q4375 735 4404 735Q4430 735 4448 716Q4467 698 4467 672Q4467 643 4450 626Q4433 609 4404 609ZM5030 223L4666 223Q4675 150 4717 109Q4759 68 4828 68Q4873 68 4909 77Q4945 87 4978 102L4999 25Q4963 8 4918 -2Q4873 -12 4817 -12Q4761 -12 4716 6Q4671 25 4639 59Q4608 94 4591 144Q4574 195 4574 260Q4574 318 4591 368Q4608 418 4639 454Q4670 491 4713 511Q4756 532 4809 532Q4865 532 4907 513Q4949 494 4977 461Q5005 428 5019 384Q5033 340 5033 291Q5033 256 5030 223ZM4807 454Q4748 454 4710 414Q4673 374 4665 296L4950 296Q4950 372 4912 413Q4874 454 4807 454Z" fill="#143d59" style=""></path></g></g></g></svg>